<?xml version="1.0" encoding="UTF-8"?>
<svg id="_レイヤー_1" data-name="レイヤー 1" xmlns="http://www.w3.org/2000/svg" viewBox="0 0 345.82 361.47">
  <defs>
    <style>
      .cls-1 {
        fill: #b3b3b3;
      }
    </style>
  </defs>
  <path class="cls-1" d="M178.9,298.88c-21.02-1.22-44.26-21.69-58.48-38.01-15.76-18.12-33.88-39.72-54.38-64.87-8.2-10.03-21.55-23.55-35.24-28.15-1.83-.61-3.87.12-4.89,1.77-1.19,1.89-1.6,3.58-1.22,5.06.2.87,1.54,1.98,3.98,3.34,12.65,7.04,22.65,15.21,30.01,24.51,22.39,28.29,43.59,53.1,63.59,74.41,8.69,9.25,18.73,17.13,30.13,23.61,35.51,20.27,58.24-.7,84.73-23.15,20.97-17.77,44.46-37.83,70.51-60.19,5.73-4.89,11.6-8.29,16.72-12.71,1.92-1.66,1.98-4.62.12-6.37l-.17-.17c-1.98-1.83-4.97-2.04-7.15-.44-7.24,5.2-11.14,8.08-11.72,8.58-27.6,23.64-52.69,45.07-75.28,64.32-13.32,11.37-24.83,19.8-34.52,25.3-2.27,1.28-5.09-.2-5.29-2.79-1.6-19.28,34.52-45.16,52.05-59,7.76-6.14,17.21-14.13,28.35-24.02,25.09-22.27,41.84-37.45,50.25-45.57.84-.81,2.18-.87,3.08-.12,5.09,4.1,14.1,11.92,17.27,17.42,16.87,29.28-18.12,50.54-37.74,66.47-25.06,20.35-48.36,38.67-69.87,54.99-19.4,14.71-37.02,31.99-52.84,51.85-9.07,11.4-21.05,5.9-30.18-2.09-25.82-22.56-52.46-54.35-72.58-79.82-20.85-26.4-42.13-48.21-63.22-73.36-6.46-7.71-12.59-15.99-14.28-26.32-2.53-15.62,2.36-28.93,14.71-39.92,15.21-13.52,29.46-25.62,44.26-37.1,34.23-26.55,63.71-52.05,88.51-76.48,12.24-12.04,20.65-18.49,25.27-19.34,21.58-3.98,38.35,14.89,52.54,30.47,18.7,20.5,34.23,41.23,53.77,58.59,14.05,12.47,29.28,23.7,45.68,33.67,8.9,5.44,5.73,16.49-.76,22.86-26.14,25.62-49.17,46.67-69.12,63.22-23.55,19.51-42.69,36-57.37,49.4-7.94,7.24-13.7,15.82-17.33,25.7-.52,1.43-.55,5.64-.09,12.59.06,1.05-.78,1.89-1.83,1.83Z"/>
</svg>